<svg width="4061" height="736" viewBox="0 0 4061 736" fill="none" xmlns="http://www.w3.org/2000/svg">
<g clip-path="url(#clip0_77_293)">
<rect width="4060" height="736" transform="translate(0.5)" fill="#4D62CE"/>
<rect x="2232.5" width="1828" height="1020" fill="white"/>
<path d="M2089.4 64.3048C2084.82 -7.68197 2142.3 -68.4544 2214.42 -69.7214C2261.18 -70.5428 2313.34 -72.0989 2358.79 -74.992C2377.13 -76.1591 2397.08 -79.4386 2417.68 -84.1384C2521.3 -107.775 2632.47 -26.4946 2614.65 78.2803L2596.8 183.236C2591.13 216.524 2572.67 246.591 2542.04 260.792C2508.04 276.549 2456.86 294.466 2394.22 298.453C2307.08 304 2181.86 195.752 2123.9 140.437C2102.99 120.484 2091.24 93.1476 2089.4 64.3048V64.3048Z" fill="#272A39"/>
<rect x="2480.11" y="191.251" width="144.659" height="276.441" rx="72.3293" transform="rotate(48.5805 2480.11 191.251)" fill="#4D62CE"/>
<path d="M2041.62 186.083L2159.15 139.585C2159.15 139.585 2390.43 301.624 2425.22 468.942C2452.35 599.393 2448.47 816.383 2448.47 816.383L1562.44 816.383C1562.44 816.383 1643.95 696.951 1721.3 636.851C1811.28 566.943 1941.37 634.274 1987.37 515.439C2033.87 395.321 2041.62 186.083 2041.62 186.083Z" fill="#272A39"/>
<path d="M1663.18 704.013C1712.79 704.013 1815.69 661.195 1856.92 618.767L1885.34 598.103C1809.13 696.264 1757.43 816.743 1581.81 840.922C1412.6 864.219 1351.23 764.61 1202.57 737.741C1197.51 736.826 1196.65 729.712 1201.33 727.583C1483.36 599.465 1545.27 704.013 1663.18 704.013Z" fill="#F9804C"/>
<path fill-rule="evenodd" clip-rule="evenodd" d="M2084.24 276.496C2162.71 276.496 2226.32 212.887 2226.32 134.421C2226.32 55.9548 2162.71 -7.65454 2084.24 -7.65454C2005.77 -7.65454 1942.17 55.9548 1942.17 134.421C1942.17 138.373 1942.33 142.287 1942.64 146.157C1942.34 146.818 1942.17 147.554 1942.17 148.33V205.756C1942.17 208.61 1944.48 210.923 1947.33 210.923H1964.5C1989.75 250.358 2033.94 276.496 2084.24 276.496Z" fill="#F8F6F4"/>
<path fill-rule="evenodd" clip-rule="evenodd" d="M2616.02 -27.0811C2616.45 -27.7026 2616.86 -28.342 2617.25 -28.9991C2636.59 -62.3002 2576.57 -128.772 2483.2 -177.469C2389.83 -226.165 2298.46 -238.645 2279.12 -205.344C2276.73 -201.22 2275.55 -196.587 2275.5 -191.542L2227.61 -33.4861L2497.55 122.797L2616.13 -27.0234L2616.02 -27.0811Z" fill="#CDF39B"/>
<path d="M1910.25 515.871C1911.85 512.084 1916.06 510.043 1919.99 511.25L1984.85 531.181C1987.86 532.107 1990.01 534.766 1990.29 537.906L1995.81 600.36C1996.16 604.24 1993.56 607.772 1989.76 608.611L1853.03 638.753C1846.14 640.272 1840.89 632.492 1844.85 626.65C1850.96 617.615 1859.84 604.421 1872.07 586.055C1892.68 555.118 1905.13 528.011 1910.25 515.871Z" fill="#CDF39B"/>
<ellipse cx="2086.82" cy="53.0505" rx="144.659" ry="127.868" fill="#272A39"/>
<path d="M2032.58 78.0451C2048.76 90.8974 2073.87 111.206 2099.88 119.989C2132.39 130.968 2161.43 127.638 2187.22 120.083" stroke="#F8F6F4" stroke-width="3.87478"/>
<path d="M2084.24 67.6195C2101.24 79.3749 2127.63 97.9813 2154.16 105.027C2187.33 113.834 2216.09 108.593 2241.32 99.351" stroke="#F8F6F4" stroke-width="3.87478"/>
<path fill-rule="evenodd" clip-rule="evenodd" d="M2261.31 -138.171C2259.15 -135.794 2257.46 -132.888 2256.5 -129.534C2241.49 -76.9869 2204.92 34.8435 2130.88 183.161C2048.59 347.981 1962.02 453.707 1928.97 491.167C1927.08 493.305 1925.68 495.727 1924.77 498.282C1911.62 510.05 1903.42 526.695 1903.42 545.148C1903.42 580.814 1934.07 609.727 1971.87 609.727C1989.33 609.727 2005.27 603.559 2017.36 593.405C2019.77 592.897 2022.11 591.939 2024.27 590.517C2069.88 560.509 2219.13 459.396 2309.12 363.984C2397.62 270.147 2496.69 130.531 2528.56 84.6857C2529.42 83.4501 2530.12 82.1531 2530.67 80.8176C2483.84 81.4532 2431.56 66.9947 2383.19 36.8274C2311.33 -7.9866 2266.82 -75.7853 2261.31 -138.171Z" fill="#F9804C"/>
<mask id="mask0_77_293" style="mask-type:alpha" maskUnits="userSpaceOnUse" x="1843" y="510" width="153" height="129">
<path d="M1910.25 515.872C1911.85 512.084 1916.06 510.043 1919.99 511.251L1984.85 531.181C1987.86 532.107 1990.01 534.766 1990.29 537.906L1995.81 600.36C1996.16 604.24 1993.56 607.772 1989.76 608.611L1853.03 638.753C1846.14 640.272 1840.89 632.492 1844.85 626.651C1850.96 617.616 1859.84 604.421 1872.07 586.056C1892.68 555.119 1905.13 528.012 1910.25 515.872Z" fill="#D9D9D9"/>
</mask>
<g mask="url(#mask0_77_293)">
<rect x="1848.08" y="596.812" width="64.5797" height="67.1629" transform="rotate(48.8546 1848.08 596.812)" fill="#272A39"/>
</g>
<path d="M1979.18 302.613C1981.79 292.851 1988.39 284.815 1997.11 279.712V279.712C2018.6 267.145 2046.64 275.695 2059.89 296.763C2077.42 324.632 2105.04 362.491 2142.52 395.844C2194.9 442.45 2262.48 432.939 2292.46 425.476C2300.51 423.472 2308.56 428.739 2307.78 437.001C2305.75 458.597 2296.09 500.497 2256.04 554.462C2191.35 641.608 2124.57 639.962 2112.54 638.874C2111.27 638.759 2110.09 638.391 2108.96 637.8C2094.1 630.07 1984.8 570.261 1968.56 475.719C1956.1 403.135 1971.15 332.552 1979.18 302.613Z" fill="#4D62CE"/>
<path d="M2245.07 301.913C2239.2 299.152 2235.96 292.868 2236.86 286.445V286.445C2238.14 277.265 2247.22 271.294 2256.21 273.579C2269.58 276.981 2288.67 281.524 2305.1 284.245C2318.87 286.525 2333.72 287.906 2345.49 288.727C2357.14 289.539 2365.87 300.12 2364 311.65V311.65C2362.3 322.148 2352.43 329.287 2341.93 327.598C2328.69 325.467 2311.01 322.621 2297.35 320.41C2280.31 317.651 2257.74 307.874 2245.07 301.913Z" fill="#F8F6F4"/>
<path d="M2228.67 259.219C2220.22 255.487 2216.07 246.023 2218.72 237.18V237.18C2222.35 225.11 2236.65 219.903 2247.75 225.891C2255.56 230.108 2264.23 234.267 2271.52 236.458C2278.27 238.488 2286.61 239.668 2294.47 240.349C2307.03 241.438 2316.28 253.635 2312.65 265.706V265.706C2310.03 274.404 2301.5 279.922 2292.54 278.414C2282.52 276.727 2269.6 274.249 2259.9 271.332C2250.23 268.423 2238.04 263.36 2228.67 259.219Z" fill="#F8F6F4"/>
<path d="M2241.3 202.725C2235.14 197.126 2234.1 187.946 2238.55 180.915V180.915C2244.31 171.813 2256.81 169.894 2265.29 176.533C2274.34 183.615 2285.57 191.938 2294.22 196.83C2300.44 200.351 2307.85 203.519 2314.77 206.131C2326.24 210.458 2331.89 224.038 2325.85 234.707V234.707C2321.08 243.147 2310.66 246.552 2301.91 242.358C2293.11 238.135 2282.16 232.698 2273.55 227.828C2263.33 222.047 2250.26 210.871 2241.3 202.725Z" fill="#F8F6F4"/>
<path d="M2281.35 174.043C2275.6 167.688 2275.74 158.091 2281.43 151.686V151.686C2287.48 144.881 2297.77 143.93 2304.99 149.47C2315.16 157.264 2329.43 168.098 2340.41 175.985C2350.35 183.125 2363.19 192.347 2373.22 199.555C2382.14 205.959 2384.16 218.372 2377.76 227.286V227.286C2371.36 236.2 2358.94 238.24 2350.03 231.836C2340 224.628 2327.16 215.406 2317.22 208.266C2305.45 199.807 2290.84 184.528 2281.35 174.043Z" fill="#F8F6F4"/>
<circle cx="2360.1" cy="259.911" r="74.9125" transform="rotate(-59.7522 2360.1 259.911)" fill="#F8F6F4"/>
<path d="M2288.34 368.181C2281.38 368.863 2277.01 360.616 2281.42 355.184C2298.94 333.629 2330.48 292.783 2345.62 260.536C2362.12 225.382 2373.28 170.333 2377.63 146.306C2378.64 140.744 2385.04 137.983 2389.75 141.106L2528.49 233.091C2552.73 249.162 2562.69 279.821 2552.53 307.071V307.071C2544.18 329.46 2523.8 345.135 2500.02 347.463L2288.34 368.181Z" fill="#4D62CE"/>
<circle cx="1991.25" cy="173.169" r="10.3328" fill="#4D62CE"/>
<path d="M2774.37 152.834H3022.36V630.724L2293.9 677.222L2346.85 581.644L2774.37 152.834Z" fill="#272A39"/>
<path d="M2650.2 -48.6547C2650.2 -48.6547 2730.45 -35.794 2842.82 23.6747C2944.86 77.6751 3023.31 153.833 3023.31 153.833C3023.31 153.833 2826.56 390.01 2650.2 497.69C2354.6 678.165 2179.35 695.567 2179.35 695.567C2179.35 695.567 2383.5 476.989 2485.05 309.117C2566.95 173.734 2650.2 -48.6547 2650.2 -48.6547Z" fill="#F8F6F4"/>
<path d="M3083.06 196.749C3083.06 196.749 3220.21 272.27 3300.05 332.366C3386.77 397.642 3505.41 519.647 3505.41 519.647C3505.41 519.647 3124.39 672.055 2950.03 694.012C2686.29 727.223 2177.65 694.012 2177.65 694.012C2177.65 694.012 2483.76 634.599 2739.5 487.357C2918.03 384.562 3083.06 196.749 3083.06 196.749Z" fill="#F8F6F4"/>
<path d="M2275.34 7.20218C2275.34 5.63944 2275.16 7.99795 2275.09 8.20791C2270.74 22.1428 2262.6 35.4039 2256.24 48.437C2236.13 89.6302 2216.11 130.879 2196.14 172.141C2183.15 198.999 2174.9 228.207 2161.19 254.611C2153.68 269.085 2144.45 282.791 2136.18 296.852" stroke="#F8F6F4" stroke-width="7.74957" stroke-linecap="round"/>
<path d="M2312.98 33.0131C2311.32 33.2207 2310.16 42.0493 2309.63 43.621C2306.24 53.6841 2301.61 63.1049 2296.84 72.5622C2286.43 93.182 2274.29 112.288 2265.24 133.673" stroke="#F8F6F4" stroke-width="7.74957" stroke-linecap="round"/>
</g>
<defs>
<clipPath id="clip0_77_293">
<rect width="4060" height="736" fill="white" transform="translate(0.5)"/>
</clipPath>
</defs>
</svg>
