<svg width="48" height="48" viewBox="0 0 48 48" fill="none" xmlns="http://www.w3.org/2000/svg">
<g filter="url(#filter0_d_46_3582)">
<mask id="path-1-inside-1_46_3582" fill="white">
<path fill-rule="evenodd" clip-rule="evenodd" d="M13.3329 6.06143C12.614 5.532 11.6092 6.11213 11.7082 6.99942L15.0385 36.8275C15.1448 37.7792 16.3828 38.0772 16.9104 37.278L22.0496 29.4944L26.6264 37.4217C27.1918 38.4011 28.4442 38.7367 29.4235 38.1712L31.4708 36.9893C32.4501 36.4238 32.7857 35.1715 32.2203 34.1921L27.6434 26.2648L36.9538 25.706C37.9097 25.6486 38.2707 24.4274 37.4996 23.8596L13.3329 6.06143Z"/>
</mask>
<path fill-rule="evenodd" clip-rule="evenodd" d="M13.3329 6.06143C12.614 5.532 11.6092 6.11213 11.7082 6.99942L15.0385 36.8275C15.1448 37.7792 16.3828 38.0772 16.9104 37.278L22.0496 29.4944L26.6264 37.4217C27.1918 38.4011 28.4442 38.7367 29.4235 38.1712L31.4708 36.9893C32.4501 36.4238 32.7857 35.1715 32.2203 34.1921L27.6434 26.2648L36.9538 25.706C37.9097 25.6486 38.2707 24.4274 37.4996 23.8596L13.3329 6.06143Z" fill="#272A39"/>
<path d="M11.7082 6.99942L9.72059 7.22134L9.72059 7.22134L11.7082 6.99942ZM13.3329 6.06143L14.5189 4.45104L13.3329 6.06143ZM15.0385 36.8275L17.0262 36.6056L15.0385 36.8275ZM16.9104 37.278L18.5794 38.38L16.9104 37.278ZM22.0496 29.4944L23.7816 28.4944L22.1636 25.6919L20.3805 28.3925L22.0496 29.4944ZM26.6264 37.4217L24.8943 38.4217L26.6264 37.4217ZM29.4235 38.1712L30.4235 39.9033L30.4235 39.9033L29.4235 38.1712ZM31.4708 36.9893L30.4708 35.2572L31.4708 36.9893ZM32.2203 34.1921L33.9523 33.1921L33.9523 33.1921L32.2203 34.1921ZM27.6434 26.2648L27.5236 24.2684L24.2933 24.4623L25.9114 27.2648L27.6434 26.2648ZM36.9538 25.706L36.834 23.7095L36.834 23.7095L36.9538 25.706ZM37.4996 23.8596L38.6857 22.2492L38.6857 22.2492L37.4996 23.8596ZM13.6959 6.7775C13.7903 7.62349 12.8323 8.17662 12.1469 7.67183L14.5189 4.45104C12.3957 2.88738 9.42801 4.60077 9.72059 7.22134L13.6959 6.7775ZM17.0262 36.6056L13.6959 6.7775L9.72059 7.22134L13.0509 37.0494L17.0262 36.6056ZM15.2414 36.1761C15.7445 35.4141 16.9249 35.6982 17.0262 36.6056L13.0509 37.0494C13.3647 39.8602 17.0211 40.7402 18.5794 38.38L15.2414 36.1761ZM20.3805 28.3925L15.2414 36.1761L18.5794 38.38L23.7186 30.5964L20.3805 28.3925ZM28.3584 36.4217L23.7816 28.4944L20.3175 30.4944L24.8943 38.4217L28.3584 36.4217ZM28.4235 36.4392C28.4147 36.4443 28.4097 36.4452 28.4065 36.4456C28.402 36.4462 28.3953 36.446 28.3874 36.4439C28.3795 36.4418 28.3736 36.4386 28.3699 36.4358C28.3674 36.4339 28.3636 36.4306 28.3584 36.4217L24.8943 38.4217C26.0121 40.3577 28.4876 41.021 30.4235 39.9033L28.4235 36.4392ZM30.4708 35.2572L28.4235 36.4392L30.4235 39.9033L32.4708 38.7213L30.4708 35.2572ZM30.4882 35.1921C30.4933 35.201 30.4942 35.206 30.4946 35.2091C30.4952 35.2137 30.4951 35.2204 30.493 35.2283C30.4909 35.2361 30.4876 35.242 30.4848 35.2457C30.4829 35.2482 30.4797 35.2521 30.4708 35.2572L32.4708 38.7213C34.4067 37.6036 35.07 35.1281 33.9523 33.1921L30.4882 35.1921ZM25.9114 27.2648L30.4882 35.1921L33.9523 33.1921L29.3755 25.2648L25.9114 27.2648ZM36.834 23.7095L27.5236 24.2684L27.7632 28.2612L37.0737 27.7024L36.834 23.7095ZM36.3136 25.47C35.5785 24.9286 35.9227 23.7643 36.834 23.7095L37.0737 27.7024C39.8968 27.5329 40.9629 23.9263 38.6857 22.2492L36.3136 25.47ZM12.1469 7.67183L36.3136 25.47L38.6857 22.2492L14.5189 4.45104L12.1469 7.67183Z" fill="white" mask="url(#path-1-inside-1_46_3582)"/>
</g>
<defs>
<filter id="filter0_d_46_3582" x="11.7014" y="5.85938" width="28.2164" height="34.5865" filterUnits="userSpaceOnUse" color-interpolation-filters="sRGB">
<feFlood flood-opacity="0" result="BackgroundImageFix"/>
<feColorMatrix in="SourceAlpha" type="matrix" values="0 0 0 0 0 0 0 0 0 0 0 0 0 0 0 0 0 0 127 0" result="hardAlpha"/>
<feOffset dx="1" dy="1"/>
<feGaussianBlur stdDeviation="0.5"/>
<feComposite in2="hardAlpha" operator="out"/>
<feColorMatrix type="matrix" values="0 0 0 0 0 0 0 0 0 0 0 0 0 0 0 0 0 0 0.25 0"/>
<feBlend mode="normal" in2="BackgroundImageFix" result="effect1_dropShadow_46_3582"/>
<feBlend mode="normal" in="SourceGraphic" in2="effect1_dropShadow_46_3582" result="shape"/>
</filter>
</defs>
</svg>
