<svg width="48" height="48" viewBox="0 0 48 48" fill="none" xmlns="http://www.w3.org/2000/svg">
<rect width="48" height="48" rx="8" fill="#4D62CE"/>
<path fill-rule="evenodd" clip-rule="evenodd" d="M17 41.1368C17.1004 41.1408 17.2014 41.1429 17.303 41.1429C19.1208 41.1429 20.7605 40.4896 21.9201 39.4421C23.0797 40.4896 24.7194 41.1429 26.5371 41.1429C26.6387 41.1429 26.7397 41.1408 26.8401 41.1368V38.2729C26.7405 38.2814 26.6394 38.2857 26.5371 38.2857C25.1434 38.2857 23.9695 37.4793 23.6158 36.3811C23.6493 36.1542 23.6666 35.923 23.6666 35.6883V31.0677C23.6666 30.2787 24.3062 29.6391 25.0952 29.6391H27V26.782H25.0952C24.3062 26.782 23.6666 26.1424 23.6666 25.3534V20.8831C23.6666 20.6485 23.6493 20.4172 23.6158 20.1904C23.4286 19 22.8526 17.9719 21.9201 17.1294C20.7605 16.0818 19.1208 15.4286 17.303 15.4286C17.2014 15.4286 17.1004 15.4306 17 15.4347V18.2986C17.0997 18.2901 17.2008 18.2857 17.303 18.2857C18.6967 18.2857 19.8707 19.0922 20.2243 20.1904C20.1908 20.4172 20.1735 20.6485 20.1735 20.8831V25.3534C20.1735 26.1424 19.5339 26.782 18.7449 26.782H17.0001V29.6391H18.7449C19.5339 29.6391 20.1735 30.2787 20.1735 31.0677V35.6883C20.1735 35.923 20.1908 36.1542 20.2243 36.3811C19.8707 37.4793 18.6967 38.2857 17.303 38.2857C17.2008 38.2857 17.0997 38.2814 17 38.2729V41.1368Z" fill="#F8F6F4"/>
<path fill-rule="evenodd" clip-rule="evenodd" d="M34.1318 12.8393C30.0626 12.8322 26.7184 8.95858 26.3245 4H26.2471C25.8532 8.95837 22.5093 12.8319 18.4403 12.8393C22.7649 12.8471 26.2705 17.2221 26.2858 22.6252C26.301 17.2219 29.8069 12.8467 34.1318 12.8393ZM26.2858 22.6965C26.2867 23.0157 26.2998 23.3314 26.3245 23.6429H26.247C26.2718 23.3314 26.2849 23.0157 26.2858 22.6965Z" fill="#F8F6F4"/>
<path fill-rule="evenodd" clip-rule="evenodd" d="M32.7355 16.8572H32.6931C32.4781 19.5643 30.6508 21.6785 28.4286 21.6785H28.4285V21.6786H28.4286C30.7955 21.6786 32.7143 24.0771 32.7143 27.0357C32.7143 27.2165 32.7071 27.3953 32.6931 27.5715H32.7355C32.7215 27.3953 32.7144 27.2165 32.7144 27.0357C32.7144 24.0771 34.633 21.6787 36.9999 21.6786V21.6785C34.7777 21.6784 32.9506 19.5642 32.7355 16.8572Z" fill="#F8F6F4"/>
</svg>
