<svg width="1065" height="674" viewBox="0 0 1065 674" fill="none" xmlns="http://www.w3.org/2000/svg">
<g clip-path="url(#clip0_49_453)">
<circle cx="782.143" cy="557.143" r="528.571" fill="black" fill-opacity="0.08"/>
<path d="M495.02 277.413C492.536 238.387 523.694 205.44 562.794 204.753C588.146 204.307 616.424 203.464 641.065 201.895C651.005 201.263 661.819 199.485 672.989 196.937C729.164 184.123 789.434 228.187 779.773 284.99L770.094 341.89C767.025 359.937 757.017 376.237 740.408 383.936C721.979 392.478 694.232 402.192 660.273 404.353C613.032 407.36 545.142 348.675 513.72 318.687C502.385 307.87 496.015 293.05 495.02 277.413V277.413Z" fill="#272A39"/>
<rect x="706.836" y="346.235" width="78.4245" height="149.869" rx="39.2123" transform="rotate(48.5805 706.836 346.235)" fill="#4D62CE"/>
<path d="M469.113 343.433L532.833 318.225C532.833 318.225 658.218 406.072 677.078 496.781C691.783 567.503 689.682 685.141 689.682 685.141L209.332 685.141C209.332 685.141 253.525 620.393 295.459 587.81C344.237 549.911 414.765 586.413 439.704 521.989C464.912 456.868 469.113 343.433 469.113 343.433Z" fill="#272A39"/>
<path d="M263.949 624.221C290.841 624.221 346.631 601.008 368.982 578.007L384.387 566.804C343.074 620.02 315.043 685.336 219.835 698.444C128.102 711.075 94.8317 657.073 14.2348 642.507C11.4897 642.011 11.0263 638.153 13.566 637C166.462 567.542 200.023 624.221 263.949 624.221Z" fill="#F9804C"/>
<path fill-rule="evenodd" clip-rule="evenodd" d="M492.221 392.45C534.76 392.45 569.245 357.965 569.245 315.425C569.245 272.886 534.76 238.401 492.221 238.401C449.681 238.401 415.197 272.886 415.197 315.425C415.197 317.568 415.284 319.69 415.456 321.788C415.289 322.146 415.197 322.545 415.197 322.966V354.099C415.197 355.646 416.451 356.9 417.997 356.9H427.305C440.992 378.279 464.952 392.45 492.221 392.45Z" fill="white"/>
<path fill-rule="evenodd" clip-rule="evenodd" d="M780.515 227.869C780.752 227.532 780.974 227.186 781.181 226.83C791.666 208.776 759.131 172.739 708.512 146.339C657.893 119.939 608.358 113.173 597.874 131.227C596.575 133.463 595.936 135.976 595.91 138.711L569.945 224.397L716.291 309.123L780.575 227.901L780.515 227.869Z" fill="#CDF39B"/>
<path d="M397.895 522.223C398.762 520.17 401.043 519.063 403.174 519.718L438.335 530.523C439.968 531.025 441.135 532.467 441.286 534.169L444.28 568.027C444.466 570.131 443.062 572.046 441 572.5L366.872 588.842C363.137 589.665 360.292 585.447 362.436 582.28C365.752 577.382 370.565 570.229 377.197 560.272C388.37 543.5 395.116 528.805 397.895 522.223Z" fill="#CDF39B"/>
<ellipse cx="493.621" cy="271.312" rx="78.4245" ry="69.3217" fill="#272A39"/>
<path d="M464.212 284.862C472.985 291.83 486.596 302.84 500.698 307.602C518.325 313.554 534.066 311.748 548.049 307.652" stroke="white" stroke-width="2.10066"/>
<path d="M492.221 279.21C501.435 285.583 515.743 295.67 530.129 299.49C548.111 304.264 563.698 301.423 577.38 296.413" stroke="white" stroke-width="2.10066"/>
<path fill-rule="evenodd" clip-rule="evenodd" d="M588.218 167.644C587.042 168.932 586.13 170.507 585.61 172.326C577.469 200.814 557.646 261.441 517.504 341.849C472.895 431.204 425.959 488.521 408.042 508.83C407.019 509.989 406.261 511.302 405.768 512.687C398.637 519.067 394.19 528.091 394.19 538.095C394.19 557.431 410.805 573.106 431.301 573.106C440.769 573.106 449.408 569.761 455.964 564.257C457.268 563.981 458.538 563.462 459.71 562.691C484.434 546.423 565.347 491.606 614.134 439.88C662.116 389.007 715.825 313.316 733.1 288.462C733.566 287.792 733.947 287.089 734.245 286.365C708.856 286.709 680.516 278.871 654.292 262.516C615.336 238.221 591.203 201.465 588.218 167.644Z" fill="#F9804C"/>
<mask id="mask0_49_453" style="mask-type:alpha" maskUnits="userSpaceOnUse" x="361" y="519" width="84" height="70">
<path d="M397.895 522.223C398.762 520.17 401.043 519.063 403.174 519.718L438.335 530.523C439.968 531.025 441.135 532.467 441.286 534.169L444.28 568.027C444.466 570.131 443.062 572.046 441 572.5L366.872 588.842C363.137 589.665 360.292 585.447 362.436 582.28C365.752 577.382 370.565 570.229 377.197 560.272C388.37 543.5 395.116 528.805 397.895 522.223Z" fill="#D9D9D9"/>
</mask>
<g mask="url(#mask0_49_453)">
<rect x="364.191" y="566.104" width="35.0109" height="36.4114" transform="rotate(48.8546 364.191 566.104)" fill="#272A39"/>
</g>
<path d="M434.246 406.686C435.665 401.394 439.241 397.037 443.97 394.271V394.271C455.616 387.458 470.822 392.093 478.004 403.515C487.506 418.624 502.481 439.149 522.802 457.23C551.197 482.497 587.833 477.341 604.086 473.295C608.452 472.208 612.815 475.063 612.393 479.543C611.29 491.251 606.058 513.966 584.341 543.223C549.272 590.467 513.071 589.575 506.548 588.985C505.857 588.923 505.22 588.723 504.604 588.403C496.55 584.212 437.296 551.788 428.492 500.533C421.733 461.183 429.895 422.917 434.246 406.686Z" fill="#4D62CE"/>
<path d="M579.409 406.229C576.228 404.732 574.472 401.325 574.958 397.843V397.843C575.654 392.866 580.578 389.629 585.449 390.868C592.701 392.712 603.05 395.175 611.958 396.65C619.42 397.886 627.473 398.635 633.85 399.08C640.167 399.521 644.9 405.257 643.888 411.507V411.507C642.967 417.199 637.616 421.069 631.924 420.153C624.744 418.998 615.162 417.455 607.757 416.257C598.514 414.761 586.279 409.46 579.409 406.229Z" fill="white"/>
<path d="M570.518 383.083C565.94 381.06 563.687 375.929 565.129 371.135V371.135C567.097 364.591 574.85 361.768 580.862 365.014C585.098 367.301 589.801 369.555 593.753 370.744C597.412 371.844 601.935 372.484 606.192 372.853C613 373.443 618.017 380.055 616.049 386.6V386.6C614.631 391.315 610.003 394.306 605.147 393.489C599.714 392.574 592.711 391.231 587.451 389.649C582.208 388.073 575.599 385.328 570.518 383.083Z" fill="white"/>
<path d="M577.367 352.455C574.029 349.42 573.463 344.443 575.875 340.631V340.631C578.998 335.697 585.774 334.657 590.373 338.256C595.278 342.095 601.367 346.607 606.056 349.259C609.43 351.168 613.444 352.886 617.197 354.302C623.415 356.648 626.479 364.01 623.207 369.794V369.794C620.618 374.37 614.968 376.215 610.228 373.942C605.455 371.652 599.519 368.705 594.852 366.065C589.312 362.931 582.223 356.872 577.367 352.455Z" fill="white"/>
<path d="M599.081 336.906C595.965 333.46 596.039 328.257 599.125 324.785V324.785C602.405 321.096 607.981 320.58 611.899 323.584C617.409 327.809 625.149 333.683 631.1 337.958C636.488 341.829 643.447 346.829 648.887 350.737C653.72 354.208 654.819 360.938 651.347 365.771V365.771C647.875 370.603 641.147 371.709 636.314 368.237C630.875 364.33 623.916 359.33 618.527 355.459C612.144 350.873 604.222 342.59 599.081 336.906Z" fill="white"/>
<circle cx="641.774" cy="383.458" r="40.6127" transform="rotate(-59.7522 641.774 383.458)" fill="white"/>
<path d="M602.871 442.155C599.094 442.524 596.727 438.054 599.121 435.109C608.617 423.423 625.715 401.279 633.923 383.797C642.871 364.739 648.92 334.895 651.277 321.869C651.823 318.853 655.294 317.356 657.847 319.05L733.062 368.918C746.203 377.631 751.604 394.252 746.095 409.025V409.025C741.568 421.163 730.521 429.661 717.628 430.923L602.871 442.155Z" fill="#4D62CE"/>
<circle cx="441.805" cy="336.432" r="5.60175" fill="#4D62CE"/>
<path d="M866.362 325.408H1000.8V584.489L605.881 609.697L634.59 557.881L866.362 325.408Z" fill="#272A39"/>
<path d="M799.045 216.174C799.045 216.174 842.555 223.146 903.474 255.386C958.791 284.662 1001.32 325.949 1001.32 325.949C1001.32 325.949 894.659 453.99 799.045 512.366C638.791 610.208 543.782 619.643 543.782 619.643C543.782 619.643 654.459 501.144 709.513 410.134C753.913 336.739 799.045 216.174 799.045 216.174Z" fill="white"/>
<path d="M1033.72 349.215C1033.72 349.215 1108.07 390.158 1151.35 422.739C1198.37 458.127 1262.69 524.27 1262.69 524.27C1262.69 524.27 1056.12 606.896 961.592 618.8C818.614 636.804 542.862 618.8 542.862 618.8C542.862 618.8 708.813 586.59 847.457 506.765C944.249 451.036 1033.72 349.215 1033.72 349.215Z" fill="white"/>
<path d="M595.825 246.456C595.825 245.608 595.724 246.887 595.688 247.001C593.327 254.555 588.913 261.745 585.465 268.81C574.566 291.143 563.71 313.505 552.887 335.875C545.842 350.435 541.372 366.27 533.94 380.585C529.865 388.432 524.861 395.862 520.377 403.485" stroke="white" stroke-width="4.20131" stroke-linecap="round"/>
<path d="M616.227 260.448C615.326 260.561 614.702 265.347 614.414 266.199C612.574 271.655 610.063 276.762 607.475 281.889C601.834 293.068 595.253 303.426 590.348 315.02" stroke="white" stroke-width="4.20131" stroke-linecap="round"/>
<path d="M678.847 207.82C679.264 209.907 682.854 211.562 684.472 212.642C687.817 214.871 691.517 217.073 695.099 218.893C707.685 225.287 721.779 229.14 735.819 230.739C742.544 231.506 749.711 230.859 756.477 230.859C759.345 230.859 761.886 230.711 764.543 229.549C765.556 229.106 766.679 228.715 767.788 228.715" stroke="black" stroke-width="4.20131" stroke-linecap="round"/>
</g>
<defs>
<clipPath id="clip0_49_453">
<rect width="1065" height="674" fill="white"/>
</clipPath>
</defs>
</svg>
