<svg width="163" height="32" viewBox="0 0 163 32" fill="none" xmlns="http://www.w3.org/2000/svg">
<path fill-rule="evenodd" clip-rule="evenodd" d="M149 25.9957C149.07 25.9986 149.141 26 149.212 26C150.485 26 151.632 25.5427 152.444 24.8094C153.256 25.5427 154.404 26 155.676 26C155.747 26 155.818 25.9986 155.888 25.9957V23.991C155.818 23.997 155.748 24 155.676 24C154.7 24 153.879 23.4355 153.631 22.6667C153.655 22.5079 153.667 22.3461 153.667 22.1818V18.9474C153.667 18.3951 154.114 17.9474 154.667 17.9474H156V15.9474H154.667C154.114 15.9474 153.667 15.4997 153.667 14.9474V11.8182C153.667 11.6539 153.655 11.4921 153.631 11.3332C153.5 10.5 153.097 9.78032 152.444 9.19057C151.632 8.45728 150.485 8 149.212 8C149.141 8 149.07 8.00143 149 8.00425V10.009C149.07 10.003 149.141 10 149.212 10C150.188 10 151.009 10.5645 151.257 11.3332C151.234 11.4921 151.221 11.6539 151.221 11.8182V14.9474C151.221 15.4997 150.774 15.9474 150.221 15.9474H149V17.9474H150.221C150.774 17.9474 151.221 18.3951 151.221 18.9474V22.1818C151.221 22.3461 151.234 22.5079 151.257 22.6667C151.009 23.4355 150.188 24 149.212 24C149.141 24 149.07 23.997 149 23.991V25.9957Z" fill="black"/>
<path fill-rule="evenodd" clip-rule="evenodd" d="M161 6.1875C158.148 6.1875 155.803 3.47416 155.527 0H155.473C155.197 3.47416 152.852 6.1875 150 6.1875C153.038 6.1875 155.5 9.26554 155.5 13.0625C155.5 13.2945 155.491 13.5239 155.473 13.75H155.527C155.509 13.5239 155.5 13.2945 155.5 13.0625C155.5 9.26554 157.962 6.1875 161 6.1875Z" fill="black"/>
<path fill-rule="evenodd" clip-rule="evenodd" d="M163 12.375C161.444 12.375 160.165 10.895 160.015 9H159.985C159.835 10.895 158.556 12.375 157 12.375C158.657 12.375 160 14.0539 160 16.125C160 16.2516 159.995 16.3767 159.985 16.5H160.015C160.005 16.3767 160 16.2516 160 16.125C160 14.0539 161.343 12.375 163 12.375Z" fill="black"/>
<path d="M11.2074 13.3438C11.1278 12.5994 10.7926 12.0199 10.2017 11.6051C9.61648 11.1903 8.85511 10.983 7.91761 10.983C7.25852 10.983 6.69318 11.0824 6.22159 11.2812C5.75 11.4801 5.3892 11.75 5.1392 12.0909C4.8892 12.4318 4.76136 12.821 4.75568 13.2585C4.75568 13.6222 4.83807 13.9375 5.00284 14.2045C5.1733 14.4716 5.40341 14.6989 5.69318 14.8864C5.98295 15.0682 6.30398 15.2216 6.65625 15.3466C7.00852 15.4716 7.36364 15.5767 7.72159 15.6619L9.35795 16.071C10.017 16.2244 10.6506 16.4318 11.2585 16.6932C11.8722 16.9545 12.4205 17.2841 12.9034 17.6818C13.392 18.0795 13.7784 18.5597 14.0625 19.1222C14.3466 19.6847 14.4886 20.3437 14.4886 21.0994C14.4886 22.1222 14.2273 23.0227 13.7045 23.8011C13.1818 24.5739 12.4261 25.179 11.4375 25.6165C10.4545 26.0483 9.2642 26.2642 7.86648 26.2642C6.50852 26.2642 5.32955 26.054 4.32955 25.6335C3.33523 25.2131 2.55682 24.5994 1.99432 23.7926C1.4375 22.9858 1.13636 22.0028 1.09091 20.8438H4.2017C4.24716 21.4517 4.43466 21.9574 4.7642 22.3608C5.09375 22.7642 5.52273 23.0653 6.05114 23.2642C6.58523 23.4631 7.18182 23.5625 7.84091 23.5625C8.52841 23.5625 9.13068 23.4602 9.64773 23.2557C10.1705 23.0455 10.5795 22.7557 10.875 22.3864C11.1705 22.0114 11.321 21.5739 11.3267 21.0739C11.321 20.6193 11.1875 20.2443 10.9261 19.9489C10.6648 19.6477 10.2983 19.3977 9.8267 19.1989C9.3608 18.9943 8.81534 18.8125 8.19034 18.6534L6.20455 18.142C4.76705 17.7727 3.63068 17.2131 2.79545 16.4631C1.96591 15.7074 1.55114 14.7045 1.55114 13.4545C1.55114 12.4261 1.82955 11.5256 2.38636 10.7528C2.94886 9.98011 3.71307 9.38068 4.67898 8.95454C5.64489 8.52273 6.73864 8.30682 7.96023 8.30682C9.19886 8.30682 10.2841 8.52273 11.2159 8.95454C12.1534 9.38068 12.8892 9.97443 13.4233 10.7358C13.9574 11.4915 14.233 12.3608 14.25 13.3438H11.2074ZM22.8814 26.2557C21.5746 26.2557 20.4524 25.9688 19.5149 25.3949C18.5831 24.821 17.8643 24.0284 17.3587 23.017C16.8587 22 16.6087 20.8295 16.6087 19.5057C16.6087 18.1761 16.8643 17.0028 17.3757 15.9858C17.8871 14.9631 18.6087 14.1676 19.5405 13.5994C20.478 13.0256 21.5859 12.7386 22.8643 12.7386C23.9268 12.7386 24.8672 12.9347 25.6854 13.3267C26.5092 13.7131 27.1655 14.2614 27.6541 14.9716C28.1428 15.6761 28.4212 16.5 28.4893 17.4432H25.5405C25.4212 16.8125 25.1371 16.2869 24.6882 15.8665C24.245 15.4403 23.6513 15.2273 22.907 15.2273C22.2763 15.2273 21.7223 15.3977 21.245 15.7386C20.7678 16.0739 20.3956 16.5568 20.1286 17.1875C19.8672 17.8182 19.7365 18.5739 19.7365 19.4545C19.7365 20.3466 19.8672 21.1136 20.1286 21.7557C20.3899 22.392 20.7564 22.8835 21.228 23.2301C21.7053 23.571 22.2649 23.7415 22.907 23.7415C23.3615 23.7415 23.7678 23.6562 24.1257 23.4858C24.4893 23.3097 24.7933 23.0568 25.0376 22.7273C25.282 22.3977 25.4496 21.9972 25.5405 21.5256H28.4893C28.4155 22.4517 28.1428 23.2727 27.6712 23.9886C27.1996 24.6989 26.5575 25.2557 25.745 25.6591C24.9325 26.0568 23.978 26.2557 22.8814 26.2557ZM34.108 18.3295V26H31.0227V8.54545H34.0398V15.1335H34.1932C34.5 14.3949 34.9744 13.8125 35.6165 13.3864C36.2642 12.9545 37.0881 12.7386 38.0881 12.7386C38.9972 12.7386 39.7898 12.929 40.4659 13.3097C41.142 13.6903 41.6648 14.2472 42.0341 14.9801C42.4091 15.7131 42.5966 16.608 42.5966 17.6648V26H39.5114V18.142C39.5114 17.2614 39.2841 16.5767 38.8295 16.0881C38.3807 15.5937 37.75 15.3466 36.9375 15.3466C36.392 15.3466 35.9034 15.4659 35.4716 15.7045C35.0455 15.9375 34.7102 16.2756 34.4659 16.7188C34.2273 17.1619 34.108 17.6989 34.108 18.3295ZM51.4517 26.2557C50.1733 26.2557 49.0653 25.9744 48.1278 25.4119C47.1903 24.8494 46.4631 24.0625 45.946 23.0511C45.4347 22.0398 45.179 20.858 45.179 19.5057C45.179 18.1534 45.4347 16.9687 45.946 15.9517C46.4631 14.9347 47.1903 14.1449 48.1278 13.5824C49.0653 13.0199 50.1733 12.7386 51.4517 12.7386C52.7301 12.7386 53.8381 13.0199 54.7756 13.5824C55.7131 14.1449 56.4375 14.9347 56.9489 15.9517C57.4659 16.9687 57.7244 18.1534 57.7244 19.5057C57.7244 20.858 57.4659 22.0398 56.9489 23.0511C56.4375 24.0625 55.7131 24.8494 54.7756 25.4119C53.8381 25.9744 52.7301 26.2557 51.4517 26.2557ZM51.4688 23.7841C52.1619 23.7841 52.7415 23.5937 53.2074 23.2131C53.6733 22.8267 54.0199 22.3097 54.2472 21.6619C54.4801 21.0142 54.5966 20.2926 54.5966 19.4972C54.5966 18.696 54.4801 17.9716 54.2472 17.3239C54.0199 16.6705 53.6733 16.1506 53.2074 15.7642C52.7415 15.3778 52.1619 15.1847 51.4688 15.1847C50.7585 15.1847 50.1676 15.3778 49.696 15.7642C49.2301 16.1506 48.8807 16.6705 48.6477 17.3239C48.4205 17.9716 48.3068 18.696 48.3068 19.4972C48.3068 20.2926 48.4205 21.0142 48.6477 21.6619C48.8807 22.3097 49.2301 22.8267 49.696 23.2131C50.1676 23.5937 50.7585 23.7841 51.4688 23.7841ZM63.4283 8.54545V26H60.343V8.54545H63.4283ZM70.3679 26.2642C69.5384 26.2642 68.7912 26.1165 68.1264 25.821C67.4673 25.5199 66.9446 25.0767 66.5582 24.4915C66.1776 23.9062 65.9872 23.1847 65.9872 22.3267C65.9872 21.5881 66.1236 20.9773 66.3963 20.4943C66.669 20.0114 67.0412 19.625 67.5128 19.3352C67.9844 19.0455 68.5156 18.8267 69.1065 18.679C69.7031 18.5256 70.3196 18.4148 70.956 18.3466C71.723 18.267 72.3452 18.196 72.8224 18.1335C73.2997 18.0653 73.6463 17.9631 73.8622 17.8267C74.0838 17.6847 74.1946 17.4659 74.1946 17.1705V17.1193C74.1946 16.4773 74.0043 15.9801 73.6236 15.6278C73.2429 15.2756 72.6946 15.0994 71.9787 15.0994C71.223 15.0994 70.6236 15.2642 70.1804 15.5938C69.7429 15.9233 69.4474 16.3125 69.294 16.7614L66.4134 16.3523C66.6406 15.5568 67.0156 14.892 67.5384 14.358C68.0611 13.8182 68.7003 13.4148 69.456 13.1477C70.2116 12.875 71.0469 12.7386 71.9616 12.7386C72.5923 12.7386 73.2202 12.8125 73.8452 12.9602C74.4702 13.108 75.0412 13.3523 75.5582 13.6932C76.0753 14.0284 76.4901 14.4858 76.8026 15.0653C77.1207 15.6449 77.2798 16.3693 77.2798 17.2386V26H74.3139V24.2017H74.2116C74.0241 24.5653 73.7599 24.9062 73.419 25.2244C73.0838 25.5369 72.6605 25.7898 72.1491 25.983C71.6435 26.1705 71.0497 26.2642 70.3679 26.2642ZM71.169 23.9972C71.7884 23.9972 72.3253 23.875 72.7798 23.6307C73.2344 23.3807 73.5838 23.0511 73.8281 22.642C74.0781 22.233 74.2031 21.7869 74.2031 21.304V19.7614C74.1065 19.8409 73.9418 19.9148 73.7088 19.983C73.4815 20.0511 73.2259 20.1108 72.9418 20.1619C72.6577 20.2131 72.3764 20.2585 72.098 20.2983C71.8196 20.3381 71.5781 20.3722 71.3736 20.4006C70.9134 20.4631 70.5014 20.5653 70.1378 20.7074C69.7741 20.8494 69.4872 21.0483 69.277 21.304C69.0668 21.554 68.9616 21.8778 68.9616 22.2756C68.9616 22.8438 69.169 23.2727 69.5838 23.5625C69.9986 23.8523 70.527 23.9972 71.169 23.9972ZM80.3821 26V12.9091H83.3736V15.0909H83.5099C83.7486 14.3352 84.1577 13.7528 84.7372 13.3438C85.3224 12.929 85.9901 12.7216 86.7401 12.7216C86.9105 12.7216 87.1009 12.7301 87.3111 12.7472C87.527 12.7585 87.706 12.7784 87.848 12.8068V15.6449C87.7173 15.5994 87.5099 15.5597 87.2259 15.5256C86.9474 15.4858 86.6776 15.4659 86.4162 15.4659C85.8537 15.4659 85.348 15.5881 84.8991 15.8324C84.456 16.071 84.1065 16.4034 83.8509 16.8295C83.5952 17.2557 83.4673 17.7472 83.4673 18.304V26H80.3821ZM99.5199 13.3438C99.4403 12.5994 99.1051 12.0199 98.5142 11.6051C97.929 11.1903 97.1676 10.983 96.2301 10.983C95.571 10.983 95.0057 11.0824 94.5341 11.2812C94.0625 11.4801 93.7017 11.75 93.4517 12.0909C93.2017 12.4318 93.0739 12.821 93.0682 13.2585C93.0682 13.6222 93.1506 13.9375 93.3153 14.2045C93.4858 14.4716 93.7159 14.6989 94.0057 14.8864C94.2955 15.0682 94.6165 15.2216 94.9688 15.3466C95.321 15.4716 95.6761 15.5767 96.0341 15.6619L97.6705 16.071C98.3295 16.2244 98.9631 16.4318 99.571 16.6932C100.185 16.9545 100.733 17.2841 101.216 17.6818C101.705 18.0795 102.091 18.5597 102.375 19.1222C102.659 19.6847 102.801 20.3437 102.801 21.0994C102.801 22.1222 102.54 23.0227 102.017 23.8011C101.494 24.5739 100.739 25.179 99.75 25.6165C98.767 26.0483 97.5767 26.2642 96.179 26.2642C94.821 26.2642 93.642 26.054 92.642 25.6335C91.6477 25.2131 90.8693 24.5994 90.3068 23.7926C89.75 22.9858 89.4489 22.0028 89.4034 20.8438H92.5142C92.5597 21.4517 92.7472 21.9574 93.0767 22.3608C93.4063 22.7642 93.8352 23.0653 94.3636 23.2642C94.8977 23.4631 95.4943 23.5625 96.1534 23.5625C96.8409 23.5625 97.4432 23.4602 97.9602 23.2557C98.483 23.0455 98.892 22.7557 99.1875 22.3864C99.483 22.0114 99.6335 21.5739 99.6392 21.0739C99.6335 20.6193 99.5 20.2443 99.2386 19.9489C98.9773 19.6477 98.6108 19.3977 98.1392 19.1989C97.6733 18.9943 97.1278 18.8125 96.5028 18.6534L94.517 18.142C93.0795 17.7727 91.9432 17.2131 91.108 16.4631C90.2784 15.7074 89.8636 14.7045 89.8636 13.4545C89.8636 12.4261 90.142 11.5256 90.6989 10.7528C91.2614 9.98011 92.0256 9.38068 92.9915 8.95454C93.9574 8.52273 95.0511 8.30682 96.2727 8.30682C97.5114 8.30682 98.5966 8.52273 99.5284 8.95454C100.466 9.38068 101.202 9.97443 101.736 10.7358C102.27 11.4915 102.545 12.3608 102.562 13.3438H99.5199ZM111.194 26.2557C109.887 26.2557 108.765 25.9688 107.827 25.3949C106.896 24.821 106.177 24.0284 105.671 23.017C105.171 22 104.921 20.8295 104.921 19.5057C104.921 18.1761 105.177 17.0028 105.688 15.9858C106.2 14.9631 106.921 14.1676 107.853 13.5994C108.79 13.0256 109.898 12.7386 111.177 12.7386C112.239 12.7386 113.18 12.9347 113.998 13.3267C114.822 13.7131 115.478 14.2614 115.967 14.9716C116.455 15.6761 116.734 16.5 116.802 17.4432H113.853C113.734 16.8125 113.45 16.2869 113.001 15.8665C112.558 15.4403 111.964 15.2273 111.219 15.2273C110.589 15.2273 110.035 15.3977 109.558 15.7386C109.08 16.0739 108.708 16.5568 108.441 17.1875C108.18 17.8182 108.049 18.5739 108.049 19.4545C108.049 20.3466 108.18 21.1136 108.441 21.7557C108.702 22.392 109.069 22.8835 109.54 23.2301C110.018 23.571 110.577 23.7415 111.219 23.7415C111.674 23.7415 112.08 23.6562 112.438 23.4858C112.802 23.3097 113.106 23.0568 113.35 22.7273C113.594 22.3977 113.762 21.9972 113.853 21.5256H116.802C116.728 22.4517 116.455 23.2727 115.984 23.9886C115.512 24.6989 114.87 25.2557 114.058 25.6591C113.245 26.0568 112.29 26.2557 111.194 26.2557ZM119.335 26V12.9091H122.327V15.0909H122.463C122.702 14.3352 123.111 13.7528 123.69 13.3438C124.276 12.929 124.943 12.7216 125.693 12.7216C125.864 12.7216 126.054 12.7301 126.264 12.7472C126.48 12.7585 126.659 12.7784 126.801 12.8068V15.6449C126.67 15.5994 126.463 15.5597 126.179 15.5256C125.901 15.4858 125.631 15.4659 125.369 15.4659C124.807 15.4659 124.301 15.5881 123.852 15.8324C123.409 16.071 123.06 16.4034 122.804 16.8295C122.548 17.2557 122.42 17.7472 122.42 18.304V26H119.335ZM128.851 26V12.9091H131.936V26H128.851ZM130.402 11.0511C129.913 11.0511 129.493 10.8892 129.141 10.5653C128.788 10.2358 128.612 9.84091 128.612 9.38068C128.612 8.91477 128.788 8.51989 129.141 8.19602C129.493 7.86648 129.913 7.7017 130.402 7.7017C130.896 7.7017 131.317 7.86648 131.663 8.19602C132.016 8.51989 132.192 8.91477 132.192 9.38068C132.192 9.84091 132.016 10.2358 131.663 10.5653C131.317 10.8892 130.896 11.0511 130.402 11.0511ZM135.109 30.9091V12.9091H138.143V15.0739H138.322C138.481 14.7557 138.705 14.4176 138.995 14.0597C139.285 13.696 139.677 13.3864 140.171 13.1307C140.665 12.8693 141.296 12.7386 142.063 12.7386C143.075 12.7386 143.987 12.9972 144.799 13.5142C145.617 14.0256 146.265 14.7841 146.742 15.7898C147.225 16.7898 147.467 18.017 147.467 19.4716C147.467 20.9091 147.231 22.1307 146.759 23.1364C146.288 24.142 145.646 24.9091 144.833 25.4375C144.021 25.9659 143.1 26.2301 142.072 26.2301C141.322 26.2301 140.7 26.1051 140.205 25.8551C139.711 25.6051 139.313 25.304 139.012 24.9517C138.717 24.5937 138.487 24.2557 138.322 23.9375H138.194V30.9091H135.109ZM138.134 19.4545C138.134 20.3011 138.254 21.0426 138.492 21.679C138.737 22.3153 139.086 22.8125 139.54 23.1705C140.001 23.5227 140.558 23.6989 141.211 23.6989C141.893 23.6989 142.464 23.517 142.924 23.1534C143.384 22.7841 143.731 22.2812 143.964 21.6449C144.202 21.0028 144.322 20.2727 144.322 19.4545C144.322 18.642 144.205 17.9205 143.972 17.2898C143.739 16.6591 143.393 16.1648 142.933 15.8068C142.472 15.4489 141.898 15.2699 141.211 15.2699C140.552 15.2699 139.992 15.4432 139.532 15.7898C139.072 16.1364 138.722 16.6222 138.484 17.2472C138.251 17.8722 138.134 18.608 138.134 19.4545Z" fill="black"/>
</svg>
