<svg width="23" height="29" viewBox="0 0 23 29" fill="none" xmlns="http://www.w3.org/2000/svg">
<path d="M19.266 11.3126C14.5057 11.2985 10.5949 6.76503 10.1341 0.962952H10.0434C9.58314 6.75922 5.67972 11.2894 0.925934 11.3126C5.97938 11.3373 10.0719 16.4552 10.0887 22.7728C10.1056 16.4491 14.2059 11.3276 19.266 11.3126Z" fill="white"/>
<path d="M10.0434 23.9619H10.1341C10.1051 23.5965 10.0897 23.2261 10.0887 22.8515C10.0877 23.2261 10.0724 23.5965 10.0434 23.9619Z" fill="white"/>
<path d="M22.5951 21.6619C20.0105 21.6377 17.8909 19.1709 17.6404 16.0169H17.5907C17.3403 19.1694 15.2227 21.6353 12.6398 21.6619C15.3917 21.6903 17.6155 24.4876 17.6155 27.9342C17.6155 28.146 17.6071 28.3554 17.5907 28.5618H17.6404C17.624 28.3554 17.6155 28.146 17.6155 27.9342C17.6155 24.486 19.8415 21.6877 22.5951 21.6619Z" fill="white"/>
</svg>
